# xmcd
# Copyright (C) 1995-1998 Ti Kan
#
# Track frame offsets:
#       150
#       17463
#       38216
#       53960
#       86023
#
# Disc length: 1267 seconds
#
# Revision: 0
# Processed by: cddbd v1.4PL0 Copyright (c) Steve Scherf et al.
# Submitted via: CD-Transfer v1.0
#
DISCID=3404f105
DTITLE=Nyle - Nyle
DYEAR=2001
DGENRE=
TTITLE0=Numbers
TTITLE1=2
TTITLE2=One For The Road
TTITLE3=Because You Love Me
TTITLE4=Data Track
EXTD=
EXTT0=
EXTT1=
EXTT2=
EXTT3=
EXTT4=
PLAYORDER=
